<svg width="451" height="76" viewBox="0 0 451 76" fill="none" xmlns="http://www.w3.org/2000/svg">
    <path d="M159.92 0.62207H0V75.6221H159.92V0.62207Z" fill="#0F7BB6"/>
    <path d="M25.5739 45.3232C25.4176 44.1245 25.4871 42.3872 25.4871 41.5359L27.2939 21.0876H33.9826L32.141 41.7096C31.7414 46.1745 33.4961 49.3538 37.961 49.3538C42.4259 49.3538 44.9277 46.1224 45.3272 42.1613L47.2209 21.0876H53.9096L52.068 41.9007C51.321 49.9098 46.0048 55.9209 37.4051 55.9209C30.699 55.9209 26.3905 51.595 25.5739 45.3232Z"
          fill="white"/>
    <path d="M55.4572 38.4089C56.3259 28.5931 62.945 20.4624 74.394 20.4624C77.3995 20.4624 80.3009 21.1573 83.1848 22.9989L82.4204 31.1122C79.7797 27.6375 76.6525 27.0816 73.7512 27.0816C66.6282 27.0816 62.7366 32.0329 62.1632 38.2873C61.6247 44.3853 64.7692 49.3366 71.6664 49.3366C74.6719 49.3366 77.8686 48.468 81.2043 45.1323L80.4572 53.4541C77.2084 55.2261 74.1681 56.0253 71.1278 56.0253C59.8005 56.0253 54.6233 47.6167 55.4398 38.4263"
          fill="white"/>
    <path d="M88.5163 21.1055H95.1876L92.7554 48.8678H102.328C103.006 48.8678 105.281 48.8331 105.907 48.7983C105.872 49.1284 105.299 55.209 105.299 55.209H85.5107L88.5337 21.1055H88.5163Z"
          fill="white"/>
    <path d="M123.298 33.8394C123.524 33.3529 123.715 32.7622 123.784 32.4148H123.888C123.923 32.8491 124.01 33.3529 124.149 33.8567C124.514 35.4203 127.12 44.0548 127.12 44.0548H118.694C118.694 44.0548 123.211 34.0826 123.298 33.8567M125.018 19.5586H124.549L106.272 55.2257H113.36L115.931 49.8227H128.805L130.403 55.2257H137.474L124.983 19.5586H125.018Z"
          fill="white"/>
    <path d="M173.838 10.0044H182.611C188.622 10.0044 192.479 14.8515 192.479 21.4881C192.479 25.1364 191.246 28.3505 188.9 30.331C187.233 31.7209 185.061 32.5027 182.229 32.5027H173.838V10.0218V10.0044ZM181.916 28.559C186.19 28.559 187.858 25.953 187.858 21.4881C187.858 17.0232 185.912 13.9134 182.038 13.9134H178.39V28.559H181.916Z"
          fill="#231F20"/>
    <path d="M194.808 10.0044H199.082V13.8439H194.808V10.0044ZM194.808 16.363H199.082V32.4853H194.808V16.363Z"
          fill="#231F20"/>
    <path d="M201.339 32.972H205.578C205.925 33.9797 206.829 34.7614 208.809 34.7614C211.224 34.7614 212.388 33.5974 212.388 31.3911V29.6364H212.301C211.363 30.7135 210.13 31.53 208.08 31.53C204.501 31.53 200.974 28.6982 200.974 23.8337C200.974 18.9692 203.875 15.9463 207.958 15.9463C209.973 15.9463 211.45 16.7281 212.423 18.0832H212.493V16.3806H216.61V31.2868C216.61 33.5453 215.88 35.0915 214.699 36.1861C213.344 37.4369 211.276 38.0102 208.879 38.0102C204.484 38.0102 201.773 36.1166 201.339 32.972ZM212.632 23.7295C212.632 21.3667 211.381 19.3514 208.792 19.3514C206.62 19.3514 205.178 21.054 205.178 23.7468C205.178 26.4397 206.62 28.0901 208.827 28.0901C211.537 28.0901 212.632 26.1096 212.632 23.7121V23.7295Z"
          fill="#231F20"/>
    <path d="M219.39 10.0044H223.664V13.8439H219.39V10.0044ZM219.39 16.363H223.664V32.4853H219.39V16.363Z"
          fill="#231F20"/>
    <path d="M225.16 16.3627H227.384V11.3245H231.571V16.3627H234.333V19.1945H231.571V27.7421C231.571 28.9409 232.231 29.3405 233.169 29.3405C233.708 29.3405 234.42 29.3057 234.42 29.3057V32.4503C234.42 32.4503 233.447 32.5198 231.744 32.5198C229.677 32.5198 227.366 31.7032 227.366 28.6455V19.1771H225.143V16.3453L225.16 16.3627Z"
          fill="#231F20"/>
    <path d="M246.041 30.6961H245.972C245.155 31.9296 243.991 32.8678 241.229 32.8678C237.928 32.8678 235.6 31.1305 235.6 27.9338C235.6 24.3897 238.501 23.243 242.08 22.7392C244.756 22.357 245.972 22.1485 245.972 20.915C245.972 19.6815 245.068 19.004 243.262 19.004C241.246 19.004 240.273 19.7336 240.152 21.2625H236.347C236.469 18.4307 238.571 15.9463 243.296 15.9463C248.022 15.9463 250.089 18.1179 250.089 21.8879V30.0881C250.089 31.3216 250.28 32.0339 250.663 32.3292V32.4856H246.545C246.285 32.1728 246.128 31.4084 246.041 30.6961ZM246.076 26.8045V24.3897C245.329 24.824 244.165 25.0846 243.088 25.3278C240.864 25.8316 239.752 26.3355 239.752 27.8469C239.752 29.3584 240.76 29.897 242.271 29.897C244.721 29.897 246.076 28.3855 246.076 26.8219V26.8045Z"
          fill="#231F20"/>
    <path d="M252.833 10.0044H257.107V32.4853H252.833V10.0044Z" fill="#231F20"/>
    <path d="M264.437 26.6997C264.437 23.4856 266.487 21.4877 269.406 20.011C268.12 18.4474 267.512 17.1792 267.512 15.355C267.512 12.4363 269.84 10.1604 273.332 10.1604C276.824 10.1604 279.204 12.2278 279.204 15.3202C279.204 18.0826 277.606 19.4724 275.174 20.7233L278.162 24.5975C278.596 23.4683 278.909 22.1826 279.048 20.9491H282.853C282.662 23.4683 281.949 25.8831 280.716 27.8984L284.26 32.4849H279.048L277.884 31.0082C276.216 32.2417 274.166 32.954 271.908 32.954C266.974 32.954 264.42 30.2264 264.42 26.6997H264.437ZM275.66 28.1069L271.543 22.7386C269.632 23.9026 268.972 25.1535 268.972 26.5781C268.972 28.2806 270.327 29.4446 272.082 29.4446C273.437 29.4446 274.653 28.9756 275.66 28.1243V28.1069ZM273.263 18.2911C274.74 17.405 275.157 16.4321 275.157 15.3724C275.157 14.3126 274.34 13.5829 273.402 13.5829C272.394 13.5829 271.647 14.33 271.647 15.4071C271.647 16.4147 272.342 17.3876 273.28 18.3084L273.263 18.2911Z"
          fill="#231F20"/>
    <path d="M290.309 10.0044H308.394V13.8439H301.636V32.4853H297.084V13.8439H290.326V10.0044H290.309Z" fill="#231F20"/>
    <path d="M306.639 24.4069C306.639 19.6292 309.87 15.9114 314.596 15.9114C319.79 15.9114 322.552 19.8725 322.552 25.623H310.86C311.173 28.1073 312.563 29.6536 314.978 29.6536C316.646 29.6536 317.619 28.9065 318.088 27.673H322.292C321.701 30.5396 319.147 32.9545 314.995 32.9545C309.644 32.9545 306.639 29.2192 306.639 24.4069ZM310.912 22.6695H318.088C317.966 20.6195 316.611 19.2123 314.665 19.2123C312.407 19.2123 311.295 20.5674 310.93 22.6695H310.912Z"
          fill="#231F20"/>
    <path d="M323.699 24.4423C323.699 19.6299 326.844 15.9294 331.743 15.9294C335.93 15.9294 338.501 18.3443 339.074 21.8363H334.888C334.61 20.4291 333.498 19.352 331.934 19.352C329.363 19.352 328.043 21.3325 328.043 24.4423C328.043 27.5521 329.276 29.5326 331.882 29.5326C333.619 29.5326 334.835 28.6292 335.113 26.8051H339.231C338.953 30.2276 336.277 32.9725 331.969 32.9725C326.879 32.9725 323.699 29.2547 323.699 24.4597V24.4423Z"
          fill="#231F20"/>
    <path d="M345.363 18.4651H345.45C346.614 16.7626 347.934 15.9113 350.14 15.9113C353.476 15.9113 355.7 18.4304 355.7 21.9398V32.4679H351.426V22.5652C351.426 20.8279 350.418 19.6118 348.629 19.6118C346.735 19.6118 345.363 21.1232 345.363 23.3296V32.4853H341.089V10.0044H345.363V18.4651Z"
          fill="#231F20"/>
    <path d="M362.564 18.5702H362.651C363.745 16.8328 365.222 15.9294 367.428 15.9294C370.764 15.9294 372.988 18.4486 372.988 21.9579V32.4861H368.714V22.5834C368.714 20.8461 367.706 19.6299 365.917 19.6299C364.023 19.6299 362.651 21.1414 362.651 23.3478V32.5035H358.377V16.3811H362.564V18.5875V18.5702Z"
          fill="#231F20"/>
    <path d="M374.812 24.4423C374.812 19.6299 378.234 15.9294 383.238 15.9294C388.241 15.9294 391.664 19.6473 391.664 24.4423C391.664 29.2373 388.241 32.9552 383.238 32.9552C378.234 32.9552 374.812 29.2373 374.812 24.4423ZM387.32 24.4423C387.32 21.2978 385.844 19.1609 383.238 19.1609C380.632 19.1609 379.155 21.2978 379.155 24.4423C379.155 27.5869 380.597 29.689 383.238 29.689C385.878 29.689 387.32 27.5869 387.32 24.4423Z"
          fill="#231F20"/>
    <path d="M393.662 10.0044H397.936V32.4853H393.662V10.0044Z" fill="#231F20"/>
    <path d="M399.898 24.4423C399.898 19.6299 403.321 15.9294 408.324 15.9294C413.328 15.9294 416.75 19.6473 416.75 24.4423C416.75 29.2373 413.328 32.9552 408.324 32.9552C403.321 32.9552 399.898 29.2373 399.898 24.4423ZM412.407 24.4423C412.407 21.2978 410.93 19.1609 408.324 19.1609C405.718 19.1609 404.242 21.2978 404.242 24.4423C404.242 27.5869 405.684 29.689 408.324 29.689C410.965 29.689 412.407 27.5869 412.407 24.4423Z"
          fill="#231F20"/>
    <path d="M418.243 32.972H422.482C422.829 33.9797 423.733 34.7614 425.713 34.7614C428.128 34.7614 429.292 33.5974 429.292 31.3911V29.6364H429.205C428.267 30.7135 427.034 31.53 424.984 31.53C421.405 31.53 417.878 28.6982 417.878 23.8337C417.878 18.9692 420.779 15.9463 424.862 15.9463C426.877 15.9463 428.354 16.7281 429.327 18.0832H429.396V16.3806H433.514V31.2868C433.514 33.5453 432.784 35.0915 431.603 36.1861C430.248 37.4369 428.18 38.0102 425.783 38.0102C421.387 38.0102 418.677 36.1166 418.243 32.972ZM429.535 23.7295C429.535 21.3667 428.284 19.3514 425.696 19.3514C423.524 19.3514 422.082 21.054 422.082 23.7468C422.082 26.4397 423.524 28.0901 425.731 28.0901C428.441 28.0901 429.535 26.1096 429.535 23.7121V23.7295Z"
          fill="#231F20"/>
    <path d="M436.469 34.4136H437.98C439.683 34.4136 440.378 33.5275 440.378 32.2072C440.378 31.3211 440.065 30.2961 439.144 27.8291L434.801 16.3455H439.3L441.698 23.6074C442.202 25.0842 442.74 27.1342 442.74 27.1342H442.81C442.81 27.1342 443.244 25.0842 443.748 23.6074L446.006 16.3455H450.315L444.686 32.8847C443.453 36.4636 442.271 37.7492 438.988 37.7492H436.469V34.3788V34.4136Z"
          fill="#231F20"/>
    <path d="M172.83 59.275H177.294C177.607 61.9852 179.153 63.045 182.35 63.045C184.678 63.045 186.728 62.2284 186.728 60.1437C186.728 57.9373 184.591 57.5029 181.169 56.7211C177.138 55.8177 173.472 54.7406 173.472 50.0498C173.472 45.6197 177.086 43.3264 182.09 43.3264C187.093 43.3264 190.429 45.8108 190.759 50.3452H186.381C186.137 48.0867 184.365 46.9574 182.037 46.9574C179.588 46.9574 177.989 47.9998 177.989 49.5981C177.989 51.4223 179.553 51.9609 182.889 52.6732C187.51 53.6808 191.28 54.7753 191.28 59.6225C191.28 64.1742 187.597 66.7281 182.541 66.7281C176.443 66.7281 172.986 64.0179 172.83 59.275Z"
          fill="#231F20"/>
    <path d="M192.722 58.1801C192.722 53.3677 196.145 49.6672 201.148 49.6672C206.152 49.6672 209.574 53.3851 209.574 58.1801C209.574 62.9751 206.152 66.693 201.148 66.693C196.145 66.693 192.722 62.9751 192.722 58.1801ZM205.231 58.1801C205.231 55.0356 203.754 52.8986 201.148 52.8986C198.542 52.8986 197.065 55.0356 197.065 58.1801C197.065 61.3246 198.507 63.4268 201.148 63.4268C203.789 63.4268 205.231 61.3246 205.231 58.1801Z"
          fill="#231F20"/>
    <path d="M211.555 43.7437H215.829V66.2246H211.555V43.7437Z" fill="#231F20"/>
    <path d="M228.84 66.2242V64.3305H228.753C227.659 65.8073 226.39 66.6585 224.132 66.6585C220.553 66.6585 218.538 64.3653 218.538 60.8385V50.0845H222.777V60.1088C222.777 62.0025 223.628 63.0275 225.452 63.0275C227.467 63.0275 228.684 61.5161 228.684 59.3792V50.0671H232.957V66.1895H228.84V66.2242Z"
          fill="#231F20"/>
    <path d="M234.49 50.1024H236.713V45.0642H240.9V50.1024H243.663V52.9343H240.9V61.4819C240.9 62.6806 241.56 63.0802 242.499 63.0802C243.037 63.0802 243.749 63.0455 243.749 63.0455V66.19C243.749 66.19 242.777 66.2595 241.074 66.2595C239.007 66.2595 236.696 65.443 236.696 62.3853V52.9169H234.472V50.0851L234.49 50.1024Z"
          fill="#231F20"/>
    <path d="M245.71 43.7437H249.984V47.5831H245.71V43.7437ZM245.71 50.1022H249.984V66.2246H245.71V50.1022Z"
          fill="#231F20"/>
    <path d="M251.913 58.1801C251.913 53.3677 255.336 49.6672 260.339 49.6672C265.343 49.6672 268.765 53.3851 268.765 58.1801C268.765 62.9751 265.343 66.693 260.339 66.693C255.336 66.693 251.913 62.9751 251.913 58.1801ZM264.422 58.1801C264.422 55.0356 262.945 52.8986 260.339 52.8986C257.733 52.8986 256.256 55.0356 256.256 58.1801C256.256 61.3246 257.698 63.4268 260.339 63.4268C262.98 63.4268 264.422 61.3246 264.422 58.1801Z"
          fill="#231F20"/>
    <path d="M274.933 52.308H275.02C276.114 50.5706 277.591 49.6672 279.798 49.6672C283.133 49.6672 285.357 52.1864 285.357 55.6957V66.2239H281.083V56.3212C281.083 54.5839 280.075 53.3677 278.286 53.3677C276.392 53.3677 275.02 54.8792 275.02 57.0856V66.2413H270.746V50.1189H274.933V52.3253V52.308Z"
          fill="#231F20"/>
    <path d="M287.06 61.0125H291.021C291.299 62.8714 292.619 63.6879 294.547 63.6879C296.476 63.6879 297.501 62.9582 297.501 61.829C297.501 60.2828 295.451 60.1264 293.262 59.6921C290.36 59.1188 287.546 58.337 287.546 54.8102C287.546 51.2835 290.43 49.6504 294.113 49.6504C298.352 49.6504 300.715 51.7525 301.028 55.0013H297.153C296.962 53.264 295.868 52.6386 294.044 52.6386C292.376 52.6386 291.281 53.264 291.281 54.428C291.281 55.8179 293.418 55.9395 295.711 56.4086C298.422 56.9819 301.41 57.7289 301.41 61.4989C301.41 64.7303 298.647 66.6935 294.617 66.6935C289.926 66.6935 287.32 64.435 287.077 60.9951L287.06 61.0125Z"
          fill="#231F20"/>
</svg>
