<svg width="102" height="103" viewBox="0 0 102 103" fill="none" xmlns="http://www.w3.org/2000/svg">
<rect y="0.5" width="102" height="102" rx="20" fill="#BFC2C7"/>
<path d="M32.2502 69.5C31.2377 69.5 30.3594 69.1282 29.6154 68.3846C28.8718 67.6406 28.5 66.7623 28.5 65.7498V37.2502C28.5 36.2377 28.8718 35.3594 29.6154 34.6154C30.3594 33.8718 31.2377 33.5 32.2502 33.5H60.7498C61.7623 33.5 62.6406 33.8718 63.3846 34.6154C64.1282 35.3594 64.5 36.2377 64.5 37.2502V48.6875L71.8873 41.3002C72.1873 41.0002 72.5312 40.9256 72.9189 41.0763C73.3063 41.2274 73.5 41.5145 73.5 41.9375V61.0625C73.5 61.4855 73.3063 61.7726 72.9189 61.9237C72.5312 62.0744 72.1873 61.9998 71.8873 61.6998L64.5 54.3125V65.7498C64.5 66.7623 64.1282 67.6406 63.3846 68.3846C62.6406 69.1282 61.7623 69.5 60.7498 69.5H32.2502ZM32.2502 65.7498H60.7498V37.2502H32.2502V65.7498Z" fill="#1F1F1F"/>
<path d="M27.5 22.5L72.5 80.5" stroke="#ED2525" stroke-width="4" stroke-linecap="round"/>
</svg>
