<svg width="103" height="103" viewBox="0 0 103 103" fill="none" xmlns="http://www.w3.org/2000/svg">
<rect x="0.5" y="0.5" width="102" height="102" rx="20" fill="#BFC2C7"/>
<path d="M51.4999 58.4073C49.0543 58.4073 46.9952 57.5295 45.3226 55.7739C43.6501 54.0183 42.8138 51.8867 42.8138 49.3789V29.202C42.8138 26.7846 43.6579 24.7299 45.3461 23.0379C47.0348 21.346 49.085 20.5 51.4967 20.5C53.9089 20.5 55.9602 21.346 57.6505 23.0379C59.3409 24.7299 60.186 26.7846 60.186 29.202V49.3789C60.186 51.8867 59.3498 54.0183 57.6772 55.7739C56.0047 57.5295 53.9456 58.4073 51.4999 58.4073ZM48.8026 79.781V71.7585C43.6949 71.1244 39.2842 69.0126 35.5707 65.4231C31.8566 61.8336 29.6758 57.4191 29.0284 52.1796C28.9205 51.4056 29.1201 50.7454 29.6273 50.1988C30.1339 49.6522 30.7721 49.3789 31.542 49.3789C32.3125 49.3789 32.954 49.6463 33.4665 50.1809C33.9791 50.716 34.3071 51.3733 34.4506 52.1526C35.1342 56.3583 37.1029 59.8028 40.3568 62.4862C43.6102 65.1691 47.3181 66.5105 51.4805 66.5105C55.7018 66.5105 59.431 65.1645 62.6681 62.4724C65.9053 59.7803 67.8656 56.3404 68.5492 52.1526C68.6927 51.3733 69.024 50.716 69.543 50.1809C70.062 49.6463 70.7049 49.3789 71.4716 49.3789C72.2388 49.3789 72.8741 49.6522 73.3774 50.1988C73.8814 50.7454 74.0794 51.4056 73.9715 52.1796C73.324 57.3462 71.1567 61.7425 67.4696 65.3684C63.783 68.9943 59.3589 71.1244 54.1973 71.7585V79.781C54.1973 80.5511 53.938 81.1969 53.4196 81.7185C52.9005 82.2395 52.2574 82.5 51.4902 82.5C50.7235 82.5 50.0839 82.2395 49.5714 81.7185C49.0588 81.1969 48.8026 80.5511 48.8026 79.781ZM51.4999 52.9684C52.4533 52.9684 53.2402 52.6195 53.8606 51.9218C54.4811 51.2234 54.7913 50.3758 54.7913 49.3789V29.202C54.7913 28.2775 54.476 27.5025 53.8452 26.877C53.214 26.2516 52.4322 25.9389 51.4999 25.9389C50.5676 25.9389 49.7859 26.2516 49.1546 26.877C48.5239 27.5025 48.2085 28.2775 48.2085 29.202V49.3789C48.2085 50.3758 48.5188 51.2234 49.1392 51.9218C49.7597 52.6195 50.5466 52.9684 51.4999 52.9684Z" fill="#333333"/>
<path d="M29 22.5L74 80.5" stroke="#ED2525" stroke-width="4" stroke-linecap="round"/>
</svg>
