<svg width="60" height="61" viewBox="0 0 60 61" fill="none" xmlns="http://www.w3.org/2000/svg">
<path d="M48.8457 33.9365C51.969 33.9365 54.6085 35.0148 56.7646 37.1709C58.9213 39.3276 60 41.9671 60 45.0898C60 48.2131 58.9213 50.8527 56.7646 53.0088C54.6086 55.1653 51.969 56.2441 48.8457 56.2441C45.723 56.2441 43.0834 55.1654 40.9268 53.0088C39.2204 51.3024 38.1918 49.2927 37.8359 46.9805L37.833 46.9814H4.45508C3.91952 46.9814 3.47062 46.7982 3.1084 46.4326C2.74581 46.0672 2.56454 45.6145 2.56445 45.0742C2.56445 44.5337 2.74564 44.0859 3.1084 43.7314C3.47062 43.3764 3.91952 43.1992 4.45508 43.1992H37.8359C38.1918 40.8873 39.2204 38.8777 40.9268 37.1709C43.0834 35.0148 45.723 33.9366 48.8457 33.9365ZM48.8545 37.7178C46.7806 37.7178 45.0322 38.4274 43.6094 39.8457C42.1861 41.2635 41.4746 43.0088 41.4746 45.082C41.4746 47.1559 42.1829 48.9044 43.6006 50.3271C45.0188 51.7504 46.7648 52.4618 48.8379 52.4619C50.9111 52.4619 52.6597 51.7531 54.083 50.335C55.5058 48.9172 56.2178 47.171 56.2178 45.0977C56.2177 43.0239 55.5085 41.2752 54.0908 39.8525C52.6732 38.4294 50.9276 37.7178 48.8545 37.7178ZM11.1543 4C14.277 4.00003 16.9166 5.07879 19.0732 7.23535C20.7793 8.94144 21.807 10.951 22.1631 13.2627H55.5449C56.0805 13.2627 56.5294 13.446 56.8916 13.8115C57.2543 14.1771 57.4355 14.6304 57.4355 15.1709C57.4355 15.7112 57.2542 16.1584 56.8916 16.5127C56.5294 16.8677 56.0805 17.0459 55.5449 17.0459H22.167C22.1657 17.0459 22.1643 17.0449 22.1631 17.0449C21.8072 19.3569 20.7797 21.3673 19.0732 23.0742C16.9167 25.2301 14.2769 26.3076 11.1543 26.3076C8.03114 26.3076 5.39139 25.2301 3.23535 23.0742C1.07868 20.9176 0 18.2771 0 15.1543C8.31283e-05 12.0311 1.07877 9.39138 3.23535 7.23535C5.39142 5.07885 8.03108 4 11.1543 4ZM11.1621 7.78223C9.08897 7.78223 7.34025 8.49111 5.91699 9.90918C4.49421 11.327 3.78223 13.0732 3.78223 15.1465C3.78226 17.2203 4.49144 18.9689 5.90918 20.3916C7.32686 21.8148 9.07239 22.5263 11.1455 22.5264C13.2194 22.5264 14.9678 21.8168 16.3906 20.3984C17.8139 18.9807 18.5254 17.2354 18.5254 15.1621C18.5254 13.0883 17.8172 11.3398 16.3994 9.91699C14.9812 8.49376 13.2352 7.78233 11.1621 7.78223Z" fill="#1F1F1F"/>
</svg>
