<svg width="103" height="103" viewBox="0 0 103 103" fill="none" xmlns="http://www.w3.org/2000/svg">
<rect x="0.5" y="0.5" width="102" height="102" rx="20" fill="#EDF0F4"/>
<path d="M49.6623 49.7939V58.3625C49.6623 58.883 49.8468 59.3193 50.2158 59.6714C50.5844 60.0239 51.0279 60.2002 51.5461 60.2002C52.0644 60.2002 52.4988 60.0157 52.8494 59.6467C53.1997 59.2781 53.3748 58.8374 53.3748 58.3248V49.8125L56.225 52.6812C56.6 53.048 57.0374 53.2396 57.5373 53.2561C58.0376 53.273 58.4752 53.0932 58.8502 52.7167C59.2252 52.3406 59.4127 51.8937 59.4127 51.3762C59.4127 50.8587 59.2252 50.4125 58.8502 50.0375L52.7752 43.9625C52.4002 43.5875 51.9626 43.4 51.4623 43.4C50.9624 43.4 50.525 43.5875 50.15 43.9625L44.075 50.0375C43.7 50.4125 43.5219 50.8499 43.5406 51.3498C43.5594 51.8501 43.7562 52.2926 44.1312 52.6773C44.5062 53.0298 44.9501 53.2092 45.4627 53.2156C45.9749 53.222 46.4186 53.0377 46.7936 52.6627L49.6623 49.7939ZM32.7502 69.5C31.7377 69.5 30.8594 69.1282 30.1154 68.3846C29.3718 67.6406 29 66.7623 29 65.7498V37.2502C29 36.2377 29.3718 35.3594 30.1154 34.6154C30.8594 33.8718 31.7377 33.5 32.7502 33.5H70.2498C71.2623 33.5 72.1406 33.8718 72.8846 34.6154C73.6282 35.3594 74 36.2377 74 37.2502V65.7498C74 66.7623 73.6282 67.6406 72.8846 68.3846C72.1406 69.1282 71.2623 69.5 70.2498 69.5H32.7502ZM32.7502 65.7498H70.2498V37.2502H32.7502V65.7498Z" fill="#1F1F1F"/>
</svg>
