<svg width="60" height="60" viewBox="0 0 60 60" fill="none" xmlns="http://www.w3.org/2000/svg">
<path d="M19.2205 42.3561L34.3397 37.5789C35.1145 37.3184 35.7776 36.9126 36.3292 36.3616C36.8803 35.81 37.2861 35.1468 37.5466 34.3721L42.3095 19.2466C42.4637 18.7682 42.3637 18.3508 42.0095 17.9945C41.6558 17.6376 41.235 17.5382 40.7471 17.6961L25.6279 22.4534C24.8532 22.7139 24.19 23.1197 23.6384 23.6708C23.0874 24.2224 22.6816 24.8855 22.4211 25.6603L17.6376 40.7858C17.4839 41.2642 17.5874 41.685 17.9479 42.0482C18.3084 42.4113 18.7326 42.5139 19.2205 42.3561ZM29.9803 33.36C29.0529 33.36 28.2642 33.0287 27.6142 32.3661C26.9647 31.7034 26.64 30.9082 26.64 29.9803C26.64 29.0529 26.9713 28.2642 27.6339 27.6142C28.2966 26.9647 29.0918 26.64 30.0197 26.64C30.9471 26.64 31.7358 26.9713 32.3858 27.6339C33.0353 28.2966 33.36 29.0918 33.36 30.0197C33.36 30.9471 33.0287 31.7358 32.3661 32.3858C31.7034 33.0353 30.9082 33.36 29.9803 33.36ZM30.0189 60C25.8658 60 21.9679 59.2126 18.3253 57.6379C14.6821 56.0632 11.505 53.9205 8.79395 51.21C6.08237 48.5 3.93868 45.3232 2.36289 41.6795C0.787631 38.0353 0 34.135 0 29.9787C0 25.8361 0.787368 21.9421 2.36211 18.2968C3.93684 14.6511 6.07947 11.4779 8.79 8.77737C11.5 6.07684 14.6768 3.93868 18.3205 2.36289C21.9647 0.787631 25.865 0 30.0213 0C34.1639 0 38.0579 0.787367 41.7032 2.3621C45.3489 3.93684 48.5221 6.07395 51.2226 8.77342C53.9232 11.4729 56.0613 14.6474 57.6371 18.2968C59.2124 21.9463 60 25.8411 60 29.9811C60 34.1342 59.2126 38.0321 57.6379 41.6747C56.0632 45.3179 53.926 48.4918 51.2266 51.1966C48.5271 53.9018 45.3526 56.0453 41.7032 57.6268C38.0537 59.2089 34.1589 60 30.0189 60ZM30.0253 56.0321C37.25 56.0321 43.3908 53.4987 48.4476 48.4318C53.5039 43.365 56.0321 37.2126 56.0321 29.9747C56.0321 22.75 53.5039 16.6092 48.4476 11.5524C43.3908 6.49605 37.25 3.9679 30.0253 3.9679C22.7874 3.9679 16.635 6.49605 11.5682 11.5524C6.50132 16.6092 3.96789 22.75 3.96789 29.9747C3.96789 37.2126 6.50132 43.365 11.5682 48.4318C16.635 53.4987 22.7874 56.0321 30.0253 56.0321Z" fill="#1F1F1F"/>
</svg>
