<svg width="52" height="52" viewBox="0 0 52 52" fill="none" xmlns="http://www.w3.org/2000/svg">
<path d="M43.5615 0.237305C48.1952 1.21415 51.6788 5.27542 52 9.99902L51.998 42.1562C51.5847 47.3513 47.3553 51.5918 42.1562 51.998L9.89258 52C4.97509 51.6131 0.882816 47.8663 0.120117 42.9893L0 42.1289V9.92188C0.358666 4.6801 4.74293 0.347499 9.97461 0H42.0225L43.5615 0.237305ZM43.2871 24.0703C42.5829 22.3198 40.5867 21.5321 38.8896 22.417C38.5453 22.5968 38.2782 22.8551 38.0146 23.1328C37.1753 22.2805 36.1628 21.8797 34.9629 22.1514C34.5934 22.2352 34.3247 22.4025 33.9824 22.5469C33.5168 22.3418 33.0467 22.0894 32.5234 22.0723V29.9785C33.1658 29.9482 33.8189 29.7489 33.9443 29.0381C34.0676 27.7178 33.8208 26.2082 33.9551 24.9102C34.0389 24.096 34.8229 23.4483 35.627 23.4473C36.4311 23.4463 37.219 24.1374 37.2998 24.9102C37.426 26.1244 37.2039 27.5497 37.2969 28.7861C37.3636 29.6811 37.9001 29.93 38.7314 29.9785V24.8047C38.7319 24.7202 38.9278 24.3078 38.9863 24.2109C39.7067 23.0222 41.5048 23.3224 41.9775 24.583C42.1785 25.1184 42.0602 26.2537 42.0713 26.877C42.0784 27.2456 42.0833 27.5082 42.0732 27.8818C42.0419 29.0749 42.0502 29.929 43.5068 29.9785L43.5078 29.9795V24.752C43.5071 24.6707 43.3335 24.1842 43.2871 24.0703ZM8.4873 22.0195C8.51155 22.466 8.69138 22.999 9.07422 23.2637C9.12776 23.301 9.43639 23.4521 9.46973 23.4521H13.5283C13.5495 23.5431 13.4937 23.5588 13.4482 23.6123C12.7007 24.5092 11.7125 25.4021 10.9004 26.2637C10.5257 26.6606 10.1638 27.0894 9.78906 27.4863C9.56783 27.7207 8.94207 28.2507 8.83398 28.4941C8.68248 28.8356 8.94244 29.4238 9.20508 29.6602C9.27389 29.7223 9.74166 29.9785 9.78906 29.9785H16.1299C16.1713 29.5058 15.9508 28.9415 15.5215 28.7031C15.472 28.6758 15.1686 28.5459 15.1484 28.5459H10.9287L15.5576 23.5439C15.7302 23.1399 15.3877 22.4685 15.0322 22.2402C14.9731 22.2027 14.5411 22.0195 14.5098 22.0195H8.4873ZM19.499 22.0537C17.3153 22.054 15.5451 23.8241 15.5449 26.0078C15.5449 28.1917 17.3152 29.9626 19.499 29.9629C21.683 29.9629 23.4541 28.1918 23.4541 26.0078C23.454 23.8239 21.6829 22.0537 19.499 22.0537ZM27.9971 22.0518C25.8132 22.0518 24.0421 23.823 24.042 26.0068C24.042 28.1908 25.8131 29.9619 27.9971 29.9619C30.1811 29.9619 31.9521 28.1908 31.9521 26.0068C31.952 23.8229 30.181 22.0518 27.9971 22.0518ZM19.499 23.458C20.9054 23.4581 22.0458 24.5985 22.0459 26.0049C22.0459 27.4113 20.9054 28.5516 19.499 28.5518C18.0925 28.5518 16.9521 27.4114 16.9521 26.0049C16.9522 24.5985 18.0926 23.458 19.499 23.458ZM27.998 23.4609C29.4038 23.4611 30.5428 24.6001 30.543 26.0059C30.543 27.4117 29.4039 28.5516 27.998 28.5518C26.5921 28.5518 25.4521 27.4118 25.4521 26.0059C25.4523 24.6 26.5922 23.4609 27.998 23.4609Z" fill="white"/>
</svg>
