<svg width="50" height="50" viewBox="0 0 50 50" fill="none" xmlns="http://www.w3.org/2000/svg">
    <path d="M25 48C37.7025 48 48 37.7025 48 25C48 12.2975 37.7025 2 25 2C12.2975 2 2 12.2975 2 25C2 37.7025 12.2975 48 25 48Z"
          stroke="#333333" stroke-width="3" stroke-linecap="round" stroke-linejoin="round"/>
    <path d="M25.0001 34.2001C30.0811 34.2001 34.2001 30.0811 34.2001 25.0001C34.2001 19.919 30.0811 15.8 25.0001 15.8C19.919 15.8 15.8 19.919 15.8 25.0001C15.8 30.0811 19.919 34.2001 25.0001 34.2001Z"
          stroke="#333333" stroke-width="3" stroke-linecap="round" stroke-linejoin="round"/>
    <path d="M8.73962 8.73926L18.4916 18.4913" stroke="#333333" stroke-width="3" stroke-linecap="round"
          stroke-linejoin="round"/>
    <path d="M31.5094 31.509L41.2614 41.261" stroke="#333333" stroke-width="3" stroke-linecap="round"
          stroke-linejoin="round"/>
    <path d="M32 18.119L40.119 10" stroke="#333333" stroke-width="3" stroke-linecap="round" stroke-linejoin="round"/>
    <path d="M8.73962 41.261L18.4916 31.509" stroke="#333333" stroke-width="3" stroke-linecap="round"
          stroke-linejoin="round"/>
</svg>
