<svg width="54" height="60" viewBox="0 0 54 60" fill="none" xmlns="http://www.w3.org/2000/svg">
<path d="M4.0851 55.8832H18.1035V36.279C18.1035 35.5377 18.3525 34.9164 18.8505 34.4152C19.3479 33.9139 19.9644 33.6633 20.7 33.6633H33.3C34.0356 33.6633 34.6521 33.9139 35.1495 34.4152C35.6475 34.9164 35.8965 35.5377 35.8965 36.279V55.8832H49.9149V21.791C49.9149 21.6047 49.8747 21.436 49.7943 21.2849C49.7133 21.1337 49.6035 21.0001 49.4649 20.884L27.6579 4.36073C27.4731 4.22106 27.2538 4.15122 27 4.15122C26.7462 4.15122 26.5269 4.22106 26.3421 4.36073L4.5351 20.884C4.3965 21.0001 4.2867 21.1337 4.2057 21.2849C4.1253 21.436 4.0851 21.6047 4.0851 21.791V55.8832ZM0 55.8832V21.8028C0 20.9587 0.1782 20.1714 0.5346 19.441C0.8916 18.7106 1.4103 18.1047 2.0907 17.6234L23.8986 1.0539C24.786 0.351301 25.8132 0 26.9802 0C28.1472 0 29.1876 0.351301 30.1014 1.0539L51.9093 17.6234C52.5897 18.1047 53.1084 18.7106 53.4654 19.441C53.8218 20.1714 54 20.9587 54 21.8028V55.8832C54 57.0024 53.5968 57.9684 52.7904 58.781C51.984 59.5937 51.0255 60 49.9149 60H34.4079C33.6723 60 33.0558 59.7494 32.5584 59.2481C32.0604 58.7463 31.8114 58.1247 31.8114 57.3834V37.7791H22.1886V57.3834C22.1886 58.1247 21.9396 58.7463 21.4416 59.2481C20.9442 59.7494 20.3277 60 19.5921 60H4.0851C2.9745 60 2.016 59.5937 1.2096 58.781C0.4032 57.9684 0 57.0024 0 55.8832Z" fill="#1F1F1F"/>
</svg>
