<svg width="60" height="60" viewBox="0 0 60 60" fill="none" xmlns="http://www.w3.org/2000/svg">
<g clip-path="url(#clip0_64_401)">
<path d="M30 58C45.464 58 58 45.464 58 30C58 14.536 45.464 2 30 2C14.536 2 2 14.536 2 30C2 45.464 14.536 58 30 58Z" stroke="#333333" stroke-width="4" stroke-linecap="round" stroke-linejoin="round"/>
<path d="M29.9998 41.1998C36.1854 41.1998 41.1998 36.1854 41.1998 29.9998C41.1998 23.8142 36.1854 18.7998 29.9998 18.7998C23.8142 18.7998 18.7998 23.8142 18.7998 29.9998C18.7998 36.1854 23.8142 41.1998 29.9998 41.1998Z" stroke="#333333" stroke-width="4" stroke-linecap="round" stroke-linejoin="round"/>
<path d="M10.2051 10.2041L22.0771 22.0761" stroke="#333333" stroke-width="4" stroke-linecap="round" stroke-linejoin="round"/>
<path d="M37.9248 37.9238L49.7968 49.7958" stroke="#333333" stroke-width="4" stroke-linecap="round" stroke-linejoin="round"/>
<path d="M37.9248 22.0761L49.7968 10.2041" stroke="#333333" stroke-width="4" stroke-linecap="round" stroke-linejoin="round"/>
<path d="M37.9248 22.0759L47.8088 12.1919" stroke="#333333" stroke-width="4" stroke-linecap="round" stroke-linejoin="round"/>
<path d="M10.2051 49.7958L22.0771 37.9238" stroke="#333333" stroke-width="4" stroke-linecap="round" stroke-linejoin="round"/>
</g>
<defs>
<clipPath id="clip0_64_401">
<rect width="60" height="60" fill="white"/>
</clipPath>
</defs>
</svg>
